#!OML:ASF G:\JayActor3\Patient Classification 1\Patient 1\Session 5\male.ASF
:FULLY-SPECIFIED
:DEGREES
449
root 28.3476 16.5523 8.04104 7.45871 -53.3243 -9.88793
lowerback 3.95706 -2.25899 5.43771
upperback 1.16502 -2.79991 0.719331
thorax -1.24025 -1.41333 -2.15943
lowerneck 0.836876 -3.08275 0.334164
upperneck 5.06419 -4.25147 2.28765
head 1.46838 -2.09535 0.606024
rclavicle 7.33018e-015 -1.11319e-014
rhumerus -29.4151 -17.3779 -82.3602
rradius 14.5204
rwrist 24.2695
rhand -16.255 -5.3622
rfingers 7.12502
rthumb 9.95416 -35.1068
lclavicle 7.33018e-015 -1.11319e-014
lhumerus -36.8674 26.0621 71.5046
lradius 6.07809
lwrist 8.515
lhand -21.177 15.9047
lfingers 7.12502
lthumb 5.20341 45.8208
rfemur -5.43104 7.41798 39.6055
rtibia 50.1919
rfoot -2.18941 -8.09845
rtoes 4.79174
lfemur -18.227 0.426739 -10.1539
ltibia 27.0773
lfoot -21.0018 -3.98931
ltoes -19.2902
450
root 28.1161 16.5329 8.20022 7.27426 -54.3694 -9.64647
lowerback 3.82704 -2.21438 5.1479
upperback 1.13507 -2.75952 0.597645
thorax -1.18809 -1.39161 -2.13006
lowerneck 0.877089 -2.84993 0.539533
upperneck 5.14145 -3.93401 2.05694
head 1.47202 -1.93688 0.504197
rclavicle 2.99171e-014 1.94809e-014
rhumerus -29.4455 -17.0628 -82.5465
rradius 14.7487
rwrist 23.857
rhand -16.2257 -5.33328
rfingers 7.12502
rthumb 9.98238 -35.0766
lclavicle 2.99171e-014 1.94809e-014
lhumerus -37.0724 26.6732 70.945
lradius 5.58948
lwrist 8.13192
lhand -20.7335 16.1145
lfingers 7.12502
lthumb 5.63166 46.0196
rfemur -7.64461 7.64333 39.0789
rtibia 54.6616
rfoot 0.366423 -8.52324
rtoes 5.30145
lfemur -16.6953 0.312561 -10.3283
ltibia 26.8896
lfoot -20.7376 -5.14053
ltoes -17.2822
451
root 27.8868 16.5092 8.35369 6.56252 -55.459 -8.95017
lowerback 3.97391 -2.16555 4.56717
upperback 1.10219 -2.70829 0.411036
thorax -1.28318 -1.367 -1.99457
lowerneck 0.95363 -2.61356 0.74098
upperneck 5.16911 -3.61219 1.87874
head 1.4566 -1.77615 0.420133
rclavicle 7.99363e-014 -9.54166e-015
rhumerus -29.6057 -16.8869 -82.6224
rradius 14.9432
rwrist 23.4417
rhand -16.2632 -5.31624
rfingers 7.12502
rthumb 9.94623 -35.0613
lclavicle 7.99363e-014 -9.54166e-015
lhumerus -37.2148 27.2719 70.3909
lradius 5.0783
lwrist 7.64089
lhand -20.2282 16.3241
lfingers 7.12502
lthumb 6.1195 46.2158
rfemur -9.90005 7.83103 38.3062
rtibia 59.1448
rfoot 2.00998 -9.2806
rtoes 5.69356
lfemur -14.9804 0.533182 -10.7659
ltibia 26.6451
lfoot -20.3512 -6.13977
ltoes -15.2939
452
root 27.6585 16.4837 8.50165 5.22868 -56.554 -7.68226
lowerback 4.37698 -2.11378 3.66062
upperback 1.07014 -2.6594 0.148008
thorax -1.51032 -1.34424 -1.7456
lowerneck 1.03224 -2.37664 0.920084
upperneck 5.16882 -3.29183 1.77298
head 1.43534 -1.61564 0.36214
rclavicle -2.62644e-014 8.74653e-015
rhumerus -29.8814 -16.8382 -82.5973
rradius 15.0765
rwrist 23.0879
rhand -16.3913 -5.31374
rfingers 7.12502
rthumb 9.82263 -35.0646
lclavicle -2.62644e-014 8.74653e-015
lhumerus -37.3023 27.8538 69.8504
lradius 4.59918
lwrist 7.04018
lhand -19.7119 16.4853
lfingers 7.12502
lthumb 6.61797 46.3619
rfemur -12.1438 7.94339 37.2464
rtibia 63.482
rfoot 2.54798 -10.3671
rtoes 6.0853
lfemur -13.0886 1.16354 -11.4979
ltibia 26.1687
lfoot -19.869 -6.9923
ltoes -13.3149
453
root 27.4308 16.4587 8.64465 3.17181 -57.629 -5.7084
lowerback 4.99152 -2.04742 2.39671
upperback 1.04596 -2.61593 -0.209697
thorax -1.83695 -1.32198 -1.38609
lowerneck 1.07609 -2.14265 1.07454
upperneck 5.15664 -2.97868 1.74417
head 1.4192 -1.45785 0.3313
rclavicle -2.34193e-014 3.18055e-015
rhumerus -30.245 -16.941 -82.4687
rradius 15.128
rwrist 22.873
rhand -16.5643 -5.29492
rfingers 7.12502
rthumb 9.65576 -35.0536
lclavicle -2.34193e-014 3.18055e-015
lhumerus -37.401 28.398 69.3089
lradius 4.30898
lwrist 6.38025
lhand -19.2494 16.58
lfingers 7.12502
lthumb 7.06438 46.4421
rfemur -14.3558 7.97015 35.8374
rtibia 67.5364
rfoot 2.04075 -11.6882
rtoes 6.62026
lfemur -10.9997 2.15489 -12.5583
ltibia 25.366
lfoot -19.1668 -7.68379
ltoes -11.5017
454
root 27.2029 16.4346 8.78409 0.374249 -58.6531 -2.97137
lowerback 5.73523 -1.95613 0.795336
upperback 1.03174 -2.58392 -0.66579
thorax -2.21625 -1.30049 -0.933917
lowerneck 1.07558 -1.9174 1.20376
upperneck 5.12279 -2.67942 1.77088
head 1.40581 -1.30644 0.321087
rclavicle -1.10574e-013 1.07344e-014
rhumerus -30.6671 -17.1565 -82.2631
rradius 15.0923
rwrist 22.8779
rhand -16.7329 -5.27713
rfingers 7.12502
rthumb 9.4931 -35.0433
lclavicle -1.10574e-013 1.07344e-014
lhumerus -37.559 28.9066 68.7477
lradius 4.28779
lwrist 5.70845
lhand -18.8717 16.5529
lfingers 7.12502
lthumb 7.42895 46.4025
rfemur -16.5564 7.92962 34.0516
rtibia 71.1947
rfoot 0.723363 -12.9995
rtoes 7.16677
lfemur -8.70003 3.38822 -13.9487
ltibia 24.2069
lfoot -18.2992 -8.26423
ltoes -9.66786
455
root 26.9756 16.4102 8.9212 -3.05361 -59.5912 0.473926
lowerback 6.49233 -1.82792 -1.06652
upperback 1.02371 -2.55884 -1.20827
thorax -2.59028 -1.27641 -0.425214
lowerneck 1.0408 -1.70521 1.33232
upperneck 5.03746 -2.39722 1.81657
head 1.3827 -1.16337 0.31649
rclavicle 7.57867e-016 -2.38542e-015
rhumerus -31.1127 -17.468 -81.9985
rradius 14.9767
rwrist 23.1502
rhand -16.8237 -5.26543
rfingers 7.12502
rthumb 9.40549 -35.0356
lclavicle 7.57867e-016 -2.38542e-015
lhumerus -37.7828 29.3783 68.1662
lradius 4.55503
lwrist 5.08097
lhand -18.6492 16.3972
lfingers 7.12502
lthumb 7.64372 46.239
rfemur -18.825 7.8482 31.9159
rtibia 74.3712
rfoot -1.10799 -14.0531
rtoes 7.64311
lfemur -6.24355 4.7 -15.6312
ltibia 22.7282
lfoot -17.4158 -8.68136
ltoes -7.87032
456
root 26.7493 16.3849 9.05786 -6.79675 -60.4342 4.34618
lowerback 7.141 -1.66226 -3.00869
upperback 1.01536 -2.52879 -1.79166
thorax -2.9042 -1.24559 0.0790352
lowerneck 0.988311 -1.50665 1.46204
upperneck 4.87401 -2.13091 1.86352
head 1.33827 -1.0287 0.31201
rclavicle 2.45996e-014 -1.43125e-014
rhumerus -31.5495 -17.8758 -81.6789
rradius 14.8016
rwrist 23.6891
rhand -16.7487 -5.27614
rfingers 7.12502
rthumb 9.47785 -35.043
lclavicle 2.45996e-014 -1.43125e-014
lhumerus -38.0123 29.8334 67.5858
lradius 4.99598
lwrist 4.52228
lhand -18.6501 16.0899
lfingers 7.12502
lthumb 7.6429 45.9318
rfemur -21.2322 7.76243 29.5822
rtibia 76.9781
rfoot -3.18043 -14.7127
rtoes 7.8496
lfemur -3.75307 5.91663 -17.4679
ltibia 21.0308
lfoot -16.6149 -8.82733
ltoes -6.10707
457
root 26.5246 16.3581 9.19611 -10.4463 -61.195 8.23943
lowerback 7.59302 -1.47697 -4.81227
upperback 0.99932 -2.48462 -2.35471
thorax -3.1243 -1.20742 0.514437
lowerneck 0.954472 -1.32425 1.60007
upperneck 4.60447 -1.88124 1.88652
head 1.25725 -0.903686 0.298977
rclavicle 2.37672e-014 1.90833e-014
rhumerus -31.9559 -18.3571 -81.3084
rradius 14.5816
rwrist 24.4421
rhand -16.5009 -5.30747
rfingers 7.12502
rthumb 9.71695 -35.0633
lclavicle 2.37672e-014 1.90833e-014
lhumerus -38.1734 30.2937 67.04
lradius 5.45803
lwrist 4.02717
lhand -18.9034 15.6442
lfingers 7.12502
lthumb 7.39841 45.4948
rfemur -23.8006 7.68001 27.2739
rtibia 78.9223
rfoot -5.32353 -15.0603
rtoes 7.4513
lfemur -1.39159 6.95016 -19.275
ltibia 19.2664
lfoot -15.9541 -8.66686
ltoes -4.48348
